<svg xmlns="http://www.w3.org/2000/svg" viewBox="0 0 64 64">
  <rect width="64" height="64" rx="12" fill="#2D2A2B"/>
  <g transform="translate(11 15) scale(0.1129)" fill="#E9E9EA">
    <path d="M224.02,141.51h145.5C384.16,59.89,330.49,0,243.1,0h-43.47l-16.41,91.38c-5.32,30.17,11.09,50.13,40.81,50.13ZM28.83,141.51h76.3c29.28,0,52.35-19.96,57.67-50.13L179.22,0H54.12l-25.29,141.51ZM145.5,301.65h39.92c96.71,0,167.24-55.01,181.88-141.51h-147.72c-29.72,0-52.79,19.96-58.11,50.57l-15.97,90.94ZM0,301.65h125.1l15.97-90.94c5.32-30.61-10.65-50.57-39.48-50.57H25.29L0,301.65Z"/>
  </g>
</svg>
